HIERARCHY
ROOT joint_Root
{
	OFFSET 0.0 0.0 0.0
	CHANNELS 6 Xposition Yposition Zposition Zrotation Xrotation Yrotation 
	JOINT Hips
	{
		OFFSET -17.1583 93.1646 452.98
		CHANNELS 6 Xposition Yposition Zposition Zrotation Xrotation Yrotation 
		JOINT Spine
		{
			OFFSET 15.7357 0.0 0.0
			CHANNELS 6 Xposition Yposition Zposition Zrotation Xrotation Yrotation 
			JOINT Chest
			{
				OFFSET 8.98455 -0.406207 0.0
				CHANNELS 6 Xposition Yposition Zposition Zrotation Xrotation Yrotation 
				JOINT Neck
				{
					OFFSET 16.3773 0.0 0.0
					CHANNELS 6 Xposition Yposition Zposition Zrotation Xrotation Yrotation 
					JOINT Head
					{
						OFFSET 6.45672 0.0 0.0
						CHANNELS 6 Xposition Yposition Zposition Zrotation Xrotation Yrotation 
						End Site
						{
							OFFSET 0.0 0.0 0.0
						}
					}
				}
				JOINT Shoulder_L
				{
					OFFSET 12.9942 -0.242716 4.98039
					CHANNELS 6 Xposition Yposition Zposition Zrotation Xrotation Yrotation 
					JOINT UpperArm_L
					{
						OFFSET 5.34809 0.0 0.0
						CHANNELS 6 Xposition Yposition Zposition Zrotation Xrotation Yrotation 
						JOINT LowerArm_L
						{
							OFFSET 24.3286 1.87007e-05 0.0
							CHANNELS 6 Xposition Yposition Zposition Zrotation Xrotation Yrotation 
							JOINT Hand_L
							{
								OFFSET 22.2916 0.0 0.0
								CHANNELS 6 Xposition Yposition Zposition Zrotation Xrotation Yrotation 
								End Site
								{
									OFFSET 0.0 0.0 0.0
								}
							}
						}
					}
				}
				JOINT Shoulder_R
				{
					OFFSET 12.9945 -0.242716 -4.98039
					CHANNELS 6 Xposition Yposition Zposition Zrotation Xrotation Yrotation 
					JOINT UpperArm_R
					{
						OFFSET -5.34813 0.0 0.0
						CHANNELS 6 Xposition Yposition Zposition Zrotation Xrotation Yrotation 
						JOINT LowerArm_R
						{
							OFFSET -24.3289 0.000322201 0.0
							CHANNELS 6 Xposition Yposition Zposition Zrotation Xrotation Yrotation 
							JOINT Hand_R
							{
								OFFSET -22.2915 -0.000108084 0.0
								CHANNELS 6 Xposition Yposition Zposition Zrotation Xrotation Yrotation 
								End Site
								{
									OFFSET 0.0 0.0 0.0
								}
							}
						}
					}
				}
			}
		}
		JOINT UpperLeg_L
		{
			OFFSET -2.19248 -6.46944 0.0
			CHANNELS 6 Xposition Yposition Zposition Zrotation Xrotation Yrotation 
			JOINT LowerLeg_L
			{
				OFFSET 39.0811 0.0 -1.23785e-05
				CHANNELS 6 Xposition Yposition Zposition Zrotation Xrotation Yrotation 
				JOINT Foot_L
				{
					OFFSET 40.9854 0.0 -1.26872e-05
					CHANNELS 6 Xposition Yposition Zposition Zrotation Xrotation Yrotation 
					JOINT Toes_L
					{
						OFFSET 11.7543 0.0 0.0
						CHANNELS 6 Xposition Yposition Zposition Zrotation Xrotation Yrotation 
						End Site
						{
							OFFSET 0.0 0.0 0.0
						}
					}
				}
			}
		}
		JOINT UpperLeg_R
		{
			OFFSET -2.19251 6.46944 0.0
			CHANNELS 6 Xposition Yposition Zposition Zrotation Xrotation Yrotation 
			JOINT LowerLeg_R
			{
				OFFSET -39.0811 -0.00228153 -0.0401928
				CHANNELS 6 Xposition Yposition Zposition Zrotation Xrotation Yrotation 
				JOINT Foot_R
				{
					OFFSET -40.9854 0.0 0.0
					CHANNELS 6 Xposition Yposition Zposition Zrotation Xrotation Yrotation 
					JOINT Toes_R
					{
						OFFSET -11.7543 0.0 0.0
						CHANNELS 6 Xposition Yposition Zposition Zrotation Xrotation Yrotation 
						End Site
						{
							OFFSET 0.0 0.0 0.0
						}
					}
				}
			}
		}
	}
}
MOTION
Frames:	7
Frame Time:	0.0333333
0.000000 0.000000 0.000000 0.000000 0.000000 -0.000000 0.698364 91.631400 -46.202500 86.225000 -0.693547 -13.552500 15.735700 0.000005 -0.000001 39.684500 85.288700 -37.523200 8.984550 -0.406207 -0.000000 -1.608860 -7.426370 4.221790 16.377300 -0.000001 -0.000001 -5.290530 4.745030 -3.300380 6.456720 -0.000001 -0.000000 -1.745020 7.698000 1.105030 12.994200 -0.242716 4.980390 -91.752100 6.433050 -74.729600 5.348090 -0.000007 -0.000001 -73.215600 -21.025600 -2.918650 24.328600 0.000019 0.000005 57.795300 3.652370 -87.701600 22.291600 -0.000001 0.000005 46.138800 3.909620 25.499100 12.994500 -0.242716 -4.980390 89.884100 0.404421 -73.998600 -5.348130 -0.000001 -0.000004 -55.912000 -12.643200 25.906300 -24.328900 0.000322 -0.000009 2.114380 9.429010 -12.699000 -22.291500 -0.000108 -0.000004 53.989600 5.297900 0.145640 -2.192480 -6.469440 -0.000000 -176.821000 -1.206130 -1.855860 39.081100 -0.000007 -0.000012 0.002048 -0.005289 21.164500 40.985400 -0.000006 -0.000013 -2.204380 11.811700 -61.436500 11.754300 -0.000000 0.000003 -0.046230 -0.284065 -28.265200 -2.192510 6.469440 -0.000001 -171.511000 -4.266620 126.938000 -39.081100 -0.002282 -0.040193 -0.153474 0.041293 75.219000 -40.985400 0.000008 0.000006 -1.473740 -20.192200 -65.520400 -11.754300 -0.000006 -0.000006 -0.000742 0.179339 -9.298730
0.000000 0.000000 0.000000 0.000000 0.000000 -0.000000 0.544218 94.158000 -35.854000 86.246700 -0.833828 -15.405300 15.735700 0.000005 -0.000001 25.588000 85.223200 -23.082300 8.984550 -0.406207 -0.000000 -3.460510 -8.857280 4.752560 16.377300 -0.000001 -0.000001 -4.832910 5.304130 -3.559880 6.456720 -0.000001 -0.000000 -0.576388 9.593170 0.503357 12.994200 -0.242716 4.980390 -91.770600 6.491950 -74.708400 5.348090 -0.000007 -0.000001 -72.019900 -19.180300 -2.557230 24.328600 0.000019 0.000005 57.633900 0.782792 -89.504500 22.291600 -0.000001 0.000005 47.153600 3.915340 25.416300 12.994500 -0.242716 -4.980390 90.189800 -0.635282 -73.366500 -5.348130 -0.000001 -0.000004 -52.569100 -12.940700 30.465300 -24.328900 0.000322 -0.000009 2.984980 10.335900 -16.212300 -22.291500 -0.000108 -0.000004 51.555700 5.242030 1.646810 -2.192480 -6.469440 -0.000000 -177.600000 -2.404830 2.204030 39.081100 -0.000007 -0.000012 0.001348 -0.004888 15.419900 40.985400 -0.000006 -0.000013 -1.838170 9.385560 -41.613400 11.754300 -0.000000 0.000003 -0.028365 -0.209882 -25.171500 -2.192510 6.469440 -0.000001 -173.423000 -7.331000 128.574000 -39.081100 -0.002282 -0.040193 -0.061848 0.044495 55.636600 -40.985400 0.000008 0.000006 -3.012260 -17.720700 -69.326500 -11.754300 -0.000006 -0.000006 -0.001128 0.184871 -9.073910
0.000000 0.000000 0.000000 0.000000 0.000000 -0.000000 0.714039 95.383300 -24.954700 88.023300 -1.526550 -14.353400 15.735700 0.000005 -0.000001 23.115300 85.105400 -21.189200 8.984550 -0.406207 -0.000000 -3.789230 -9.191760 3.555470 16.377300 -0.000001 -0.000001 -4.140760 5.396080 -3.287830 6.456720 -0.000001 -0.000000 0.521574 10.358400 0.172330 12.994200 -0.242716 4.980390 -91.864100 6.828320 -74.691000 5.348090 -0.000007 -0.000001 -70.741300 -16.891600 -2.062790 24.328600 0.000019 0.000005 55.547900 -0.039455 -90.027000 22.291600 -0.000001 0.000005 45.485200 3.926400 25.261600 12.994500 -0.242716 -4.980390 90.245000 -0.795831 -72.889400 -5.348130 -0.000001 -0.000004 -49.818000 -13.238600 33.838200 -24.328900 0.000322 -0.000009 3.063770 9.680060 -17.662800 -22.291500 -0.000108 -0.000004 52.410300 5.191150 2.936050 -2.192480 -6.469440 -0.000000 -179.718000 -4.264650 5.245570 39.081100 -0.000007 -0.000012 0.012407 -0.034517 19.770300 40.985400 -0.000006 -0.000013 -4.265540 6.193310 -33.347600 11.754300 -0.000000 0.000003 0.002298 0.060701 -14.114700 -2.192510 6.469440 -0.000001 -177.014000 -9.079080 135.216000 -39.081100 -0.002282 -0.040193 -0.006644 0.014120 35.130100 -40.985400 0.000008 0.000006 -4.846060 -14.112400 -72.672600 -11.754300 -0.000006 -0.000006 -0.001181 0.185615 -9.043680
0.000000 0.000000 0.000000 0.000000 0.000000 -0.000000 0.884035 95.141500 -14.007500 89.381500 -1.253950 -13.058700 15.735700 0.000005 -0.000001 23.182400 84.890400 -21.729300 8.984550 -0.406207 -0.000000 -3.644940 -9.533130 2.608310 16.377300 -0.000001 -0.000001 -3.799900 5.353060 -2.901610 6.456720 -0.000001 -0.000000 1.196370 10.602300 0.232313 12.994200 -0.242716 4.980390 -91.747400 6.458920 -74.826700 5.348090 -0.000007 -0.000001 -71.203700 -15.172200 -0.479760 24.328600 0.000019 0.000005 52.556300 1.209280 -89.072400 22.291600 -0.000001 0.000005 44.034400 3.965540 24.713000 12.994500 -0.242716 -4.980390 90.221700 -0.714851 -72.771500 -5.348130 -0.000001 -0.000004 -48.636100 -14.573200 34.394100 -24.328900 0.000322 -0.000009 2.524390 8.823580 -16.040400 -22.291500 -0.000108 -0.000004 54.249000 5.168340 3.498450 -2.192480 -6.469440 -0.000000 178.890000 -4.994160 5.691310 39.081100 -0.000007 -0.000012 0.029174 -0.046938 31.862600 40.985400 -0.000006 -0.000013 -4.635870 4.555650 -36.416800 11.754300 -0.000000 0.000003 0.002196 0.055125 -14.340800 -2.192510 6.469440 -0.000001 179.905000 -10.819300 141.719000 -39.081100 -0.002282 -0.040193 0.003478 -0.000456 18.679800 -40.985400 0.000008 0.000006 -5.465930 -13.600000 -75.865700 -11.754300 -0.000006 -0.000006 -0.000680 0.178420 -9.336050
0.000000 0.000000 0.000000 0.000000 0.000000 -0.000000 1.007220 93.946300 -2.943560 89.999400 -1.630350 -11.374400 15.735700 0.000005 -0.000001 29.708200 85.043300 -28.428500 8.984550 -0.406207 -0.000000 -2.768120 -8.724670 2.352160 16.377300 -0.000001 -0.000001 -3.813890 5.266740 -2.844940 6.456720 -0.000001 -0.000000 1.282820 10.266200 -0.172098 12.994200 -0.242716 4.980390 -91.789700 6.600530 -74.792400 5.348090 -0.000007 -0.000001 -72.086800 -12.845600 1.647700 24.328600 0.000019 0.000005 48.088400 4.590900 -85.885800 22.291600 -0.000001 0.000005 43.553900 4.019930 23.941000 12.994500 -0.242716 -4.980390 90.147700 -0.481668 -72.948100 -5.348130 -0.000001 -0.000004 -49.781900 -15.479000 32.250000 -24.328900 0.000322 -0.000009 1.975390 8.573610 -13.033100 -22.291500 -0.000108 -0.000004 54.694200 5.176940 3.291130 -2.192480 -6.469440 -0.000000 178.234000 -5.533880 5.144650 39.081100 -0.000007 -0.000012 0.098226 -0.100696 44.287800 40.985400 -0.000006 -0.000013 -7.462820 1.844950 -34.815400 11.754300 -0.000000 0.000003 0.002296 0.060556 -14.120600 -2.192510 6.469440 -0.000001 178.400000 -12.602900 145.447000 -39.081100 -0.002282 -0.040193 0.002787 0.002202 13.915400 -40.985400 0.000008 0.000006 -5.914990 -13.776900 -78.610400 -11.754300 -0.000006 -0.000006 -0.000529 0.176139 -9.428710
0.000000 0.000000 0.000000 0.000000 0.000000 -0.000000 0.971925 91.750600 7.946590 89.763600 -1.681260 -10.023700 15.735700 0.000005 -0.000001 38.981300 85.343000 -37.500000 8.984550 -0.406207 -0.000000 -1.814580 -7.362250 2.848430 16.377300 -0.000001 -0.000001 -3.924570 4.991490 -2.885400 6.456720 -0.000001 -0.000000 0.740303 9.474510 -0.851765 12.994200 -0.242716 4.980390 -91.971200 7.175930 -74.596200 5.348090 -0.000007 -0.000001 -72.524900 -10.627400 4.195810 24.328600 0.000019 0.000005 44.915000 9.727690 -80.383000 22.291600 -0.000001 0.000005 41.405900 4.146080 22.101600 12.994500 -0.242716 -4.980390 89.954500 0.147765 -72.894200 -5.348130 -0.000001 -0.000004 -53.254600 -14.184800 27.548500 -24.328900 0.000322 -0.000009 1.143230 6.363520 -10.209500 -22.291500 -0.000108 -0.000004 56.176500 5.216970 2.296530 -2.192480 -6.469440 -0.000000 179.104000 -6.662320 1.988010 39.081100 -0.000007 -0.000012 0.240004 -0.144455 58.956300 40.985400 -0.000006 -0.000013 -7.994330 0.228339 -35.903100 11.754300 -0.000000 0.000003 0.002311 0.061461 -14.083900 -2.192510 6.469440 -0.000001 -179.362000 -9.307050 147.286000 -39.081100 -0.002282 -0.040193 0.001880 0.004294 18.583500 -40.985400 0.000008 0.000006 -8.446360 -10.025600 -80.670500 -11.754300 -0.000006 -0.000006 -0.000106 0.169432 -9.701150
0.000000 0.000000 0.000000 0.000000 0.000000 -0.000000 0.422902 88.920600 17.521600 87.344500 -1.074350 -11.845500 15.735700 0.000005 -0.000001 46.137700 86.214100 -43.600900 8.984550 -0.406207 -0.000000 -2.184250 -5.465360 4.971890 16.377300 -0.000001 -0.000001 -4.671070 4.556990 -3.195720 6.456720 -0.000001 -0.000000 -0.517330 7.949760 -1.333760 12.994200 -0.242716 4.980390 -92.463900 8.786350 -74.268300 5.348090 -0.000007 -0.000001 -71.263300 -10.496900 5.680860 24.328600 0.000019 0.000005 45.524100 17.922100 -73.191200 22.291600 -0.000001 0.000005 41.396600 4.233520 20.807400 12.994500 -0.242716 -4.980390 89.467100 1.751810 -73.074400 -5.348130 -0.000001 -0.000004 -56.940000 -12.470800 21.415000 -24.328900 0.000322 -0.000009 0.700197 3.954560 -10.064900 -22.291500 -0.000108 -0.000004 57.628200 5.259620 1.179400 -2.192480 -6.469440 -0.000000 -177.234000 -7.917100 -8.727770 39.081100 -0.000007 -0.000012 0.510196 -0.116046 77.185400 40.985400 -0.000006 -0.000013 -8.940320 -2.905560 -37.708700 11.754300 -0.000000 0.000003 0.002387 0.066948 -13.861400 -2.192510 6.469440 -0.000001 -173.591000 -5.385500 139.837000 -39.081100 -0.002282 -0.040193 0.255101 -0.359700 34.994600 -40.985400 0.000008 0.000006 0.294963 -10.771200 -68.517300 -11.754300 -0.000006 -0.000006 -0.001272 0.186863 -8.992940
